<?xml version="1.0" standalone="no"?>
<!DOCTYPE svg PUBLIC "-//W3C//DTD SVG 20010904//EN"
 "http://www.w3.org/TR/2001/REC-SVG-20010904/DTD/svg10.dtd">
<svg version="1.0" xmlns="http://www.w3.org/2000/svg"
 width="689.000000px" height="354.000000px" viewBox="0 0 689.000000 354.000000"
 preserveAspectRatio="xMidYMid meet">

<g transform="translate(0.000000,354.000000) scale(0.100000,-0.100000)"
fill="#000000" stroke="none">
<path d="M1550 2993 c-37 -7 -145 -125 -180 -197 -33 -66 -43 -155 -22 -192 7
-12 4 -26 -9 -48 -22 -36 -24 -68 -7 -99 28 -54 86 -62 155 -21 l45 26 24 -23
c15 -14 40 -23 73 -27 46 -4 53 -2 81 26 16 17 30 39 30 50 0 17 5 19 48 14
26 -2 49 -7 52 -9 3 -3 5 -44 4 -91 -1 -80 -6 -103 -68 -287 -57 -168 -69
-214 -73 -287 -5 -82 -13 -103 -28 -78 -11 19 -119 67 -173 79 -29 6 -79 11
-111 11 -61 0 -192 -29 -238 -54 -27 -14 -29 -13 -81 44 -65 72 -136 114 -238
140 -97 25 -255 28 -274 5 -7 -8 -11 -15 -9 -16 2 0 58 -2 124 -4 92 -2 134
-7 179 -24 231 -83 315 -255 251 -511 -9 -35 -11 -58 -5 -64 43 -43 80 226 46
338 -17 54 -19 52 87 85 139 42 274 34 372 -24 48 -28 116 -98 140 -145 25
-48 55 -139 55 -166 0 -27 17 -41 32 -26 15 15 -7 104 -51 202 -68 150 -65
203 29 480 62 183 81 276 73 352 l-5 45 45 11 c75 19 140 93 123 138 -8 21
-20 11 -44 -37 -31 -61 -58 -69 -253 -72 l-174 -2 -45 -31 c-103 -72 -153 -80
-166 -27 -13 52 5 75 102 125 69 36 102 60 138 103 40 46 53 55 81 55 35 0 54
14 35 25 -14 9 -60 9 -90 1 -21 -6 -18 0 20 34 34 32 41 43 30 50 -36 22 -110
-59 -110 -121 0 -48 -21 -66 -52 -45 -27 19 -92 22 -86 4 3 -7 19 -16 36 -20
18 -5 32 -13 32 -18 0 -14 -108 -66 -117 -56 -4 4 -8 31 -8 60 1 70 42 150
116 227 l57 59 63 0 c149 0 407 -95 477 -174 43 -50 60 -116 68 -269 5 -104
22 -211 81 -512 90 -463 101 -556 80 -677 -14 -78 -70 -228 -86 -228 -3 0 -12
9 -19 20 -13 22 -42 27 -42 8 0 -7 7 -22 15 -32 21 -28 19 -82 -4 -105 -37
-37 -111 -38 -281 -5 -105 21 -102 19 -88 49 8 18 8 29 1 36 -8 8 -18 0 -36
-28 -80 -126 -217 -171 -642 -208 -370 -32 -496 -71 -556 -169 -23 -37 -26
-96 -5 -96 15 0 26 21 26 50 0 26 46 78 89 100 77 39 187 58 486 85 94 9 199
20 235 26 147 23 284 73 340 124 l25 23 95 -20 c59 -13 134 -22 197 -22 119
-1 150 14 169 80 6 21 25 62 42 89 64 104 77 162 76 345 -1 165 -1 166 -78
550 -63 318 -78 411 -85 535 -10 161 -19 200 -59 255 -36 49 -47 56 -137 99
-104 50 -221 87 -319 100 -80 11 -84 11 -126 4z m150 -502 c0 -23 -36 -51 -65
-51 -23 0 -65 26 -65 41 0 15 40 28 88 28 35 1 42 -2 42 -18z"/>
<path d="M1935 2365 c0 -84 7 -107 19 -62 8 29 8 77 0 116 -11 55 -19 33 -19
-54z"/>
<path d="M2947 2099 c-93 -14 -168 -79 -197 -172 -7 -22 -10 -71 -8 -111 4
-92 40 -156 112 -201 44 -26 58 -30 125 -30 61 0 84 5 114 22 36 22 37 22 37
3 0 -18 7 -20 55 -20 l55 0 0 135 0 135 -110 0 -110 0 0 -45 0 -45 45 0 c25 0
45 -4 45 -9 0 -37 -47 -71 -97 -71 -38 0 -89 33 -108 69 -32 63 -12 181 36
215 36 25 115 21 143 -7 13 -13 25 -28 27 -35 5 -14 121 18 126 35 6 17 -56
82 -100 105 -50 25 -127 36 -190 27z"/>
<path d="M4810 1835 l0 -245 70 0 70 0 0 118 c0 130 5 142 57 142 46 0 53 -21
53 -149 l0 -111 70 0 70 0 -1 133 c0 147 -10 190 -52 221 -39 29 -126 28 -166
-2 -17 -12 -33 -22 -36 -22 -3 0 -5 36 -5 80 l0 80 -65 0 -65 0 0 -245z"/>
<path d="M4523 1960 c-79 -18 -124 -82 -103 -145 14 -43 44 -61 127 -81 79
-18 92 -27 72 -50 -17 -21 -81 -13 -118 14 l-27 19 -39 -33 c-44 -38 -45 -36
30 -76 24 -13 65 -23 105 -25 54 -4 73 0 110 19 61 31 88 83 71 139 -15 48
-37 63 -126 85 -82 20 -97 30 -72 49 19 13 64 8 103 -13 18 -9 26 -6 53 22 39
40 32 48 -54 71 -64 16 -83 17 -132 5z"/>
<path d="M6114 1960 c-95 -22 -149 -99 -142 -200 10 -137 126 -210 271 -169
35 9 107 62 107 78 0 4 -23 17 -51 29 l-52 21 -29 -24 c-16 -14 -35 -25 -42
-25 -22 0 -66 40 -66 61 0 18 8 19 125 19 l125 0 0 40 c0 120 -118 201 -246
170z m94 -92 c7 -7 12 -20 12 -30 0 -15 -9 -18 -55 -18 -59 0 -63 4 -39 38 17
24 62 30 82 10z"/>
<path d="M3903 1944 c-18 -9 -33 -20 -33 -25 0 -5 -4 -9 -10 -9 -5 0 -10 9
-10 20 0 18 -7 20 -65 20 l-65 0 0 -180 0 -180 70 0 70 0 0 113 c0 98 3 116
18 130 25 22 48 21 72 -3 18 -18 20 -33 20 -130 l0 -110 70 0 70 0 0 114 c0
124 8 146 55 146 43 0 55 -33 55 -152 l0 -108 70 0 70 0 -1 128 c0 148 -11
187 -58 219 -55 37 -163 24 -189 -24 -10 -17 -12 -17 -34 3 -51 47 -115 57
-175 28z"/>
<path d="M5333 1941 c-35 -16 -73 -61 -73 -86 0 -3 27 -5 60 -5 47 0 64 4 80
20 23 23 49 25 75 6 33 -24 11 -42 -65 -55 -115 -19 -160 -52 -160 -119 0 -46
24 -87 60 -102 40 -16 110 -15 154 4 31 13 36 13 36 0 0 -11 15 -14 63 -14
l62 0 -3 147 c-4 165 -10 185 -67 209 -50 21 -171 18 -222 -5z m155 -208 c-4
-35 -48 -68 -82 -59 -16 4 -26 13 -26 25 0 22 14 34 55 49 48 17 57 15 53 -15z"/>
<path d="M5857 1940 c-31 -17 -37 -17 -37 -5 0 12 -14 15 -65 15 l-65 0 0
-180 0 -180 70 0 70 0 0 105 c0 119 10 138 74 151 36 6 36 6 36 60 0 49 -2 54
-23 54 -12 0 -39 -9 -60 -20z"/>
<path d="M3283 1938 c50 -135 118 -351 114 -363 -4 -9 -19 -15 -37 -15 -31 0
-31 0 -28 -47 l3 -48 57 -3 c64 -3 110 15 129 51 7 12 45 115 84 230 l72 207
-72 0 -71 0 -23 -104 c-13 -57 -27 -109 -31 -116 -4 -7 -15 21 -25 66 -9 44
-21 96 -26 117 l-10 37 -70 0 c-53 0 -70 -3 -66 -12z"/>
<path d="M660 1881 c0 -7 19 -11 48 -11 63 0 120 -17 160 -47 18 -14 36 -22
39 -19 10 10 -17 34 -60 55 -49 24 -187 40 -187 22z"/>
<path d="M1167 1241 c-32 -32 -79 -70 -105 -84 -65 -35 -181 -66 -280 -74 -76
-5 -103 -15 -88 -30 10 -10 127 -3 206 13 41 8 104 28 139 45 l63 29 31 -26
c83 -69 208 -104 307 -85 99 20 156 51 118 63 -7 3 -35 -4 -63 -15 -74 -28
-193 -21 -269 18 -30 15 -63 36 -72 46 -16 17 -13 22 40 75 53 52 64 73 40 81
-5 2 -35 -23 -67 -56z"/>
</g>
</svg>
